<mxfile host="app.diagrams.net" modified="2020-12-16T04:04:46.240Z" agent="5.0 (Windows NT 6.2; Win64; x64) AppleWebKit/537.36 (KHTML, like Gecko) Chrome/87.0.4280.88 Safari/537.36" etag="imPDMpRvMUTC-Ri_9wyR" version="14.0.1" type="github">
  <diagram id="6a731a19-8d31-9384-78a2-239565b7b9f0" name="Page-1">
    <mxGraphModel dx="2555" dy="838" grid="1" gridSize="10" guides="1" tooltips="1" connect="1" arrows="1" fold="1" page="1" pageScale="1" pageWidth="1169" pageHeight="827" background="#ffffff" math="0" shadow="0">
      <root>
        <mxCell id="0" />
        <mxCell id="1" parent="0" />
        <mxCell id="1351" value="Contabilidad&lt;br&gt;Servicios" style="ellipse;whiteSpace=wrap;html=1;shadow=0;fontFamily=Helvetica;fontSize=20;align=center;strokeWidth=3;fillColor=#60a917;strokeColor=#2D7600;fontColor=#ffffff;" parent="1" vertex="1">
          <mxGeometry x="1103.5" y="241.5" width="120" height="120" as="geometry" />
        </mxCell>
        <mxCell id="1353" value="&lt;font style=&quot;font-size: 18px&quot;&gt;Contabilidad gubernament&lt;/font&gt;al" style="ellipse;whiteSpace=wrap;html=1;shadow=0;fontFamily=Helvetica;fontSize=20;fontColor=#FFFFFF;align=center;strokeWidth=3;fillColor=#1699D3;strokeColor=none;" parent="1" vertex="1">
          <mxGeometry x="1936" y="806.5" width="120" height="120" as="geometry" />
        </mxCell>
        <mxCell id="1355" value="Contabilidad&amp;nbsp;&lt;br&gt;Comercial&amp;nbsp;" style="ellipse;whiteSpace=wrap;html=1;shadow=0;fontFamily=Helvetica;fontSize=20;fontColor=#FFFFFF;align=center;strokeWidth=3;fillColor=#F08705;strokeColor=none;" parent="1" vertex="1">
          <mxGeometry x="1330" y="1221.5" width="120" height="120" as="geometry" />
        </mxCell>
        <mxCell id="1356" value="Contabilidad de Entidades Financiera" style="ellipse;whiteSpace=wrap;html=1;shadow=0;fontFamily=Helvetica;fontSize=20;fontColor=#FFFFFF;align=center;strokeWidth=3;fillColor=#E85642;strokeColor=none;" parent="1" vertex="1">
          <mxGeometry x="578.5" y="1170" width="120" height="120" as="geometry" />
        </mxCell>
        <mxCell id="1357" value="Hotelera" style="rounded=1;fillColor=#60a917;strokeColor=#2D7600;strokeWidth=3;shadow=0;html=1;fontColor=#ffffff;" parent="1" vertex="1">
          <mxGeometry x="991" y="410" width="120" height="40" as="geometry" />
        </mxCell>
        <mxCell id="1360" style="endArrow=none;strokeWidth=6;strokeColor=#82b366;html=1;fillColor=#d5e8d4;" parent="1" source="1515" target="1351" edge="1">
          <mxGeometry relative="1" as="geometry" />
        </mxCell>
        <mxCell id="1362" style="endArrow=none;strokeWidth=6;strokeColor=#1699D3;html=1;" parent="1" source="1515" target="1353" edge="1">
          <mxGeometry relative="1" as="geometry" />
        </mxCell>
        <mxCell id="1363" style="endArrow=none;strokeWidth=6;strokeColor=#736CA8;html=1;" parent="1" source="1515" target="1516" edge="1">
          <mxGeometry relative="1" as="geometry" />
        </mxCell>
        <mxCell id="1365" value="" style="edgeStyle=none;endArrow=none;strokeWidth=6;strokeColor=#F08705;html=1;" parent="1" source="1515" target="1355" edge="1">
          <mxGeometry x="181" y="226.5" width="100" height="100" as="geometry">
            <mxPoint x="181" y="326.5" as="sourcePoint" />
            <mxPoint x="281" y="226.5" as="targetPoint" />
            <Array as="points">
              <mxPoint x="1170" y="950" />
              <mxPoint x="1190" y="1000" />
            </Array>
          </mxGeometry>
        </mxCell>
        <mxCell id="1366" value="" style="edgeStyle=none;endArrow=none;strokeWidth=6;strokeColor=#E85642;html=1;" parent="1" source="1515" target="1356" edge="1">
          <mxGeometry x="181" y="226.5" width="100" height="100" as="geometry">
            <mxPoint x="181" y="326.5" as="sourcePoint" />
            <mxPoint x="281" y="226.5" as="targetPoint" />
          </mxGeometry>
        </mxCell>
        <mxCell id="1389" value="Transportes" style="rounded=1;fillColor=#60a917;strokeColor=#2D7600;strokeWidth=3;shadow=0;html=1;fontColor=#ffffff;" parent="1" vertex="1">
          <mxGeometry x="910" y="281.5" width="120" height="40" as="geometry" />
        </mxCell>
        <mxCell id="1391" value="Agencias de viaje" style="rounded=1;fillColor=#60a917;strokeColor=#2D7600;strokeWidth=3;shadow=0;html=1;fontColor=#ffffff;" parent="1" vertex="1">
          <mxGeometry x="1010" y="141.5" width="120" height="40" as="geometry" />
        </mxCell>
        <mxCell id="1393" value="Universidades" style="rounded=1;fillColor=#60a917;strokeColor=#2D7600;strokeWidth=3;shadow=0;html=1;fontColor=#ffffff;" parent="1" vertex="1">
          <mxGeometry x="1231" y="150" width="120" height="40" as="geometry" />
        </mxCell>
        <mxCell id="1395" value="Comidas" style="rounded=1;fillColor=#60a917;strokeColor=#2D7600;strokeWidth=3;shadow=0;html=1;fontColor=#ffffff;" parent="1" vertex="1">
          <mxGeometry x="1290" y="340" width="120" height="58.5" as="geometry" />
        </mxCell>
        <mxCell id="1399" value="" style="edgeStyle=none;endArrow=none;strokeWidth=3;strokeColor=#2D7600;html=1;fillColor=#60a917;" parent="1" source="1351" target="1357" edge="1">
          <mxGeometry x="3.5" y="21.5" width="100" height="100" as="geometry">
            <mxPoint x="3.5" y="121.5" as="sourcePoint" />
            <mxPoint x="103.5" y="21.5" as="targetPoint" />
          </mxGeometry>
        </mxCell>
        <mxCell id="1401" value="" style="edgeStyle=none;endArrow=none;strokeWidth=3;strokeColor=#2D7600;html=1;fillColor=#60a917;" parent="1" source="1351" target="1389" edge="1">
          <mxGeometry x="3.5" y="21.5" width="100" height="100" as="geometry">
            <mxPoint x="3.5" y="121.5" as="sourcePoint" />
            <mxPoint x="103.5" y="21.5" as="targetPoint" />
          </mxGeometry>
        </mxCell>
        <mxCell id="1403" value="" style="edgeStyle=none;endArrow=none;strokeWidth=3;strokeColor=#2D7600;html=1;fillColor=#60a917;" parent="1" source="1351" target="1391" edge="1">
          <mxGeometry x="3.5" y="21.5" width="100" height="100" as="geometry">
            <mxPoint x="3.5" y="121.5" as="sourcePoint" />
            <mxPoint x="103.5" y="21.5" as="targetPoint" />
          </mxGeometry>
        </mxCell>
        <mxCell id="1405" value="" style="edgeStyle=none;endArrow=none;strokeWidth=3;strokeColor=#2D7600;html=1;fillColor=#60a917;" parent="1" source="1351" target="1393" edge="1">
          <mxGeometry x="3.5" y="21.5" width="100" height="100" as="geometry">
            <mxPoint x="3.5" y="121.5" as="sourcePoint" />
            <mxPoint x="103.5" y="21.5" as="targetPoint" />
          </mxGeometry>
        </mxCell>
        <mxCell id="1407" value="" style="edgeStyle=none;endArrow=none;strokeWidth=3;strokeColor=#2D7600;html=1;fillColor=#60a917;" parent="1" source="1351" target="1395" edge="1">
          <mxGeometry x="3.5" y="21.5" width="100" height="100" as="geometry">
            <mxPoint x="3.5" y="121.5" as="sourcePoint" />
            <mxPoint x="103.5" y="21.5" as="targetPoint" />
          </mxGeometry>
        </mxCell>
        <mxCell id="N-JNO2pC3MTRMVF4ANTs-1576" value="" style="edgeStyle=orthogonalEdgeStyle;rounded=0;orthogonalLoop=1;jettySize=auto;html=1;fontSize=18;strokeColor=#FF0000;" edge="1" parent="1">
          <mxGeometry relative="1" as="geometry">
            <mxPoint x="1800" y="821.5" as="sourcePoint" />
            <mxPoint x="1800" y="710" as="targetPoint" />
          </mxGeometry>
        </mxCell>
        <mxCell id="N-JNO2pC3MTRMVF4ANTs-1578" value="" style="edgeStyle=orthogonalEdgeStyle;rounded=0;orthogonalLoop=1;jettySize=auto;html=1;fontSize=18;strokeColor=#FF0000;" edge="1" parent="1" source="1436">
          <mxGeometry relative="1" as="geometry">
            <mxPoint x="1800" y="707" as="targetPoint" />
          </mxGeometry>
        </mxCell>
        <mxCell id="1436" value="PolicÃ­a" style="rounded=1;fillColor=#64BBE2;strokeColor=none;strokeWidth=3;shadow=0;html=1;fontColor=#FFFFFF;" parent="1" vertex="1">
          <mxGeometry x="1840" y="686.5" width="120" height="40" as="geometry" />
        </mxCell>
        <mxCell id="N-JNO2pC3MTRMVF4ANTs-1572" value="" style="edgeStyle=orthogonalEdgeStyle;rounded=0;orthogonalLoop=1;jettySize=auto;html=1;fontSize=18;strokeColor=#FF0000;" edge="1" parent="1" source="1437">
          <mxGeometry relative="1" as="geometry">
            <mxPoint x="2200" y="676.5" as="targetPoint" />
          </mxGeometry>
        </mxCell>
        <mxCell id="N-JNO2pC3MTRMVF4ANTs-1579" value="" style="edgeStyle=orthogonalEdgeStyle;rounded=0;orthogonalLoop=1;jettySize=auto;html=1;fontSize=18;strokeColor=#FF0000;" edge="1" parent="1" source="1437" target="1436">
          <mxGeometry relative="1" as="geometry" />
        </mxCell>
        <mxCell id="1437" value="Ministerios" style="rounded=1;fillColor=#64BBE2;strokeColor=none;strokeWidth=3;shadow=0;html=1;fontColor=#FFFFFF;" parent="1" vertex="1">
          <mxGeometry x="2000" y="656.5" width="120" height="40" as="geometry" />
        </mxCell>
        <mxCell id="N-JNO2pC3MTRMVF4ANTs-1570" value="" style="edgeStyle=orthogonalEdgeStyle;rounded=0;orthogonalLoop=1;jettySize=auto;html=1;fontSize=18;entryX=0.167;entryY=-0.037;entryDx=0;entryDy=0;entryPerimeter=0;strokeColor=#FF0000;" edge="1" parent="1" source="1439" target="1442">
          <mxGeometry relative="1" as="geometry">
            <mxPoint x="2180" y="846.5" as="targetPoint" />
          </mxGeometry>
        </mxCell>
        <mxCell id="N-JNO2pC3MTRMVF4ANTs-1574" value="" style="edgeStyle=orthogonalEdgeStyle;rounded=0;orthogonalLoop=1;jettySize=auto;html=1;fontSize=18;strokeColor=#FF0000;" edge="1" parent="1" source="1439">
          <mxGeometry relative="1" as="geometry">
            <mxPoint x="2200" y="680" as="targetPoint" />
            <Array as="points">
              <mxPoint x="2190" y="700" />
            </Array>
          </mxGeometry>
        </mxCell>
        <mxCell id="1439" value="Municipalidades" style="rounded=1;fillColor=#64BBE2;strokeColor=none;strokeWidth=3;shadow=0;html=1;fontColor=#FFFFFF;" parent="1" vertex="1">
          <mxGeometry x="2120" y="726.5" width="120" height="40" as="geometry" />
        </mxCell>
        <mxCell id="N-JNO2pC3MTRMVF4ANTs-1566" value="" style="edgeStyle=orthogonalEdgeStyle;rounded=0;orthogonalLoop=1;jettySize=auto;html=1;fontSize=18;strokeColor=#FF0000;" edge="1" parent="1" source="1442">
          <mxGeometry relative="1" as="geometry">
            <mxPoint x="2220" y="1011.5" as="targetPoint" />
          </mxGeometry>
        </mxCell>
        <mxCell id="1442" value="Prefecturas" style="rounded=1;fillColor=#64BBE2;strokeColor=none;strokeWidth=3;shadow=0;html=1;fontColor=#FFFFFF;" parent="1" vertex="1">
          <mxGeometry x="2160" y="891.5" width="120" height="40" as="geometry" />
        </mxCell>
        <mxCell id="N-JNO2pC3MTRMVF4ANTs-1564" value="" style="edgeStyle=orthogonalEdgeStyle;rounded=0;orthogonalLoop=1;jettySize=auto;html=1;fontSize=18;strokeColor=#FF0000;" edge="1" parent="1" source="1443">
          <mxGeometry relative="1" as="geometry">
            <mxPoint x="2220" y="1000" as="targetPoint" />
          </mxGeometry>
        </mxCell>
        <mxCell id="1443" value="Universidades" style="rounded=1;fillColor=#64BBE2;strokeColor=none;strokeWidth=3;shadow=0;html=1;fontColor=#FFFFFF;" parent="1" vertex="1">
          <mxGeometry x="2056" y="980" width="120" height="40" as="geometry" />
        </mxCell>
        <mxCell id="N-JNO2pC3MTRMVF4ANTs-1559" value="" style="edgeStyle=orthogonalEdgeStyle;rounded=0;orthogonalLoop=1;jettySize=auto;html=1;fontSize=18;strokeColor=#FF0000;" edge="1" parent="1" source="1444" target="1445">
          <mxGeometry relative="1" as="geometry">
            <Array as="points">
              <mxPoint x="1890" y="956" />
              <mxPoint x="1816" y="956" />
            </Array>
          </mxGeometry>
        </mxCell>
        <mxCell id="N-JNO2pC3MTRMVF4ANTs-1562" value="" style="edgeStyle=orthogonalEdgeStyle;rounded=0;orthogonalLoop=1;jettySize=auto;html=1;fontSize=18;fontColor=#FF0000;fillColor=#f8cecc;strokeColor=#FF0000;" edge="1" parent="1" source="1444" target="1443">
          <mxGeometry relative="1" as="geometry">
            <Array as="points">
              <mxPoint x="1890" y="1060" />
              <mxPoint x="2116" y="1060" />
            </Array>
          </mxGeometry>
        </mxCell>
        <mxCell id="N-JNO2pC3MTRMVF4ANTs-1604" style="edgeStyle=orthogonalEdgeStyle;rounded=0;orthogonalLoop=1;jettySize=auto;html=1;exitX=0.5;exitY=1;exitDx=0;exitDy=0;fontSize=18;strokeColor=#FF0000;" edge="1" parent="1" source="1444">
          <mxGeometry relative="1" as="geometry">
            <mxPoint x="1890" y="1060" as="targetPoint" />
          </mxGeometry>
        </mxCell>
        <mxCell id="1444" value="Fuerzas Armadas" style="rounded=1;fillColor=#64BBE2;strokeColor=none;strokeWidth=3;shadow=0;html=1;fontColor=#FFFFFF;" parent="1" vertex="1">
          <mxGeometry x="1830" y="980" width="120" height="40" as="geometry" />
        </mxCell>
        <mxCell id="N-JNO2pC3MTRMVF4ANTs-1560" value="" style="edgeStyle=orthogonalEdgeStyle;rounded=0;orthogonalLoop=1;jettySize=auto;html=1;fontSize=18;strokeColor=#FF0000;" edge="1" parent="1" source="1445">
          <mxGeometry relative="1" as="geometry">
            <mxPoint x="1800" y="820" as="targetPoint" />
          </mxGeometry>
        </mxCell>
        <mxCell id="1445" value="Empresas del estado" style="rounded=1;fillColor=#64BBE2;strokeColor=none;strokeWidth=3;shadow=0;html=1;fontColor=#FFFFFF;" parent="1" vertex="1">
          <mxGeometry x="1756" y="891.5" width="120" height="40" as="geometry" />
        </mxCell>
        <mxCell id="1447" value="" style="edgeStyle=none;endArrow=none;strokeWidth=3;strokeColor=#64BBE2;html=1;" parent="1" source="1353" target="1436" edge="1">
          <mxGeometry x="-24" y="196.5" width="100" height="100" as="geometry">
            <mxPoint x="-24" y="296.5" as="sourcePoint" />
            <mxPoint x="76" y="196.5" as="targetPoint" />
          </mxGeometry>
        </mxCell>
        <mxCell id="1448" value="" style="edgeStyle=none;endArrow=none;strokeWidth=3;strokeColor=#64BBE2;html=1;" parent="1" source="1353" target="1437" edge="1">
          <mxGeometry x="-24" y="196.5" width="100" height="100" as="geometry">
            <mxPoint x="-24" y="296.5" as="sourcePoint" />
            <mxPoint x="76" y="196.5" as="targetPoint" />
          </mxGeometry>
        </mxCell>
        <mxCell id="1450" value="" style="edgeStyle=none;endArrow=none;strokeWidth=3;strokeColor=#64BBE2;html=1;" parent="1" source="1353" target="1439" edge="1">
          <mxGeometry x="-24" y="196.5" width="100" height="100" as="geometry">
            <mxPoint x="-24" y="296.5" as="sourcePoint" />
            <mxPoint x="76" y="196.5" as="targetPoint" />
          </mxGeometry>
        </mxCell>
        <mxCell id="1452" value="" style="edgeStyle=none;endArrow=none;strokeWidth=3;strokeColor=#64BBE2;html=1;" parent="1" source="1353" target="1442" edge="1">
          <mxGeometry x="-24" y="196.5" width="100" height="100" as="geometry">
            <mxPoint x="-24" y="296.5" as="sourcePoint" />
            <mxPoint x="76" y="196.5" as="targetPoint" />
          </mxGeometry>
        </mxCell>
        <mxCell id="1454" value="" style="edgeStyle=none;endArrow=none;strokeWidth=3;strokeColor=#64BBE2;html=1;" parent="1" source="1353" target="1443" edge="1">
          <mxGeometry x="-24" y="196.5" width="100" height="100" as="geometry">
            <mxPoint x="-24" y="296.5" as="sourcePoint" />
            <mxPoint x="76" y="196.5" as="targetPoint" />
          </mxGeometry>
        </mxCell>
        <mxCell id="1455" value="" style="edgeStyle=none;endArrow=none;strokeWidth=3;strokeColor=#64BBE2;html=1;" parent="1" source="N-JNO2pC3MTRMVF4ANTs-1557" target="1444" edge="1">
          <mxGeometry x="-24" y="196.5" width="100" height="100" as="geometry">
            <mxPoint x="-24" y="296.5" as="sourcePoint" />
            <mxPoint x="76" y="196.5" as="targetPoint" />
          </mxGeometry>
        </mxCell>
        <mxCell id="1456" value="" style="edgeStyle=none;endArrow=none;strokeWidth=3;strokeColor=#64BBE2;html=1;" parent="1" source="1353" target="1445" edge="1">
          <mxGeometry x="-24" y="196.5" width="100" height="100" as="geometry">
            <mxPoint x="-24" y="296.5" as="sourcePoint" />
            <mxPoint x="76" y="196.5" as="targetPoint" />
          </mxGeometry>
        </mxCell>
        <mxCell id="1472" value="Privadas" style="rounded=1;fillColor=#f5af58;strokeColor=none;strokeWidth=3;shadow=0;html=1;fontColor=#FFFFFF;" parent="1" vertex="1">
          <mxGeometry x="1328.5" y="1390" width="120" height="40" as="geometry" />
        </mxCell>
        <mxCell id="1484" value="" style="edgeStyle=none;endArrow=none;strokeWidth=3;strokeColor=#F5AF58;html=1;" parent="1" source="1355" target="1472" edge="1">
          <mxGeometry x="243.5" y="39" width="100" height="100" as="geometry">
            <mxPoint x="243.5" y="139" as="sourcePoint" />
            <mxPoint x="343.5" y="39" as="targetPoint" />
          </mxGeometry>
        </mxCell>
        <mxCell id="1490" value="Bancaria" style="rounded=1;fillColor=#f08e81;strokeColor=none;strokeWidth=3;shadow=0;html=1;fontColor=#FFFFFF;" parent="1" vertex="1">
          <mxGeometry x="623.5" y="1050" width="120" height="40" as="geometry" />
        </mxCell>
        <mxCell id="1492" value="mutuales de ahorro y prestamos" style="rounded=1;fillColor=#f08e81;strokeColor=none;strokeWidth=3;shadow=0;html=1;fontColor=#FFFFFF;" parent="1" vertex="1">
          <mxGeometry x="395" y="1096.5" width="183.5" height="43.5" as="geometry" />
        </mxCell>
        <mxCell id="1494" value="Casas de cambio" style="rounded=1;fillColor=#f08e81;strokeColor=none;strokeWidth=3;shadow=0;html=1;fontColor=#FFFFFF;" parent="1" vertex="1">
          <mxGeometry x="348.5" y="1210" width="120" height="40" as="geometry" />
        </mxCell>
        <mxCell id="1496" value="Almacenes de Deposito" style="rounded=1;fillColor=#f08e81;strokeColor=none;strokeWidth=3;shadow=0;html=1;fontColor=#FFFFFF;" parent="1" vertex="1">
          <mxGeometry x="400" y="1330" width="158.5" height="41" as="geometry" />
        </mxCell>
        <mxCell id="1498" value="Seguros" style="rounded=1;fillColor=#f08e81;strokeColor=none;strokeWidth=3;shadow=0;html=1;fontColor=#FFFFFF;" parent="1" vertex="1">
          <mxGeometry x="578.5" y="1414" width="120" height="40" as="geometry" />
        </mxCell>
        <mxCell id="1500" value="Bolsa&amp;nbsp; de valores" style="rounded=1;fillColor=#f08e81;strokeColor=none;strokeWidth=3;shadow=0;html=1;fontColor=#FFFFFF;" parent="1" vertex="1">
          <mxGeometry x="770" y="1320" width="120" height="40" as="geometry" />
        </mxCell>
        <mxCell id="1501" value="Cooperativas" style="rounded=1;fillColor=#f08e81;strokeColor=none;strokeWidth=3;shadow=0;html=1;fontColor=#FFFFFF;" parent="1" vertex="1">
          <mxGeometry x="800" y="1170" width="120" height="40" as="geometry" />
        </mxCell>
        <mxCell id="1502" value="" style="edgeStyle=none;endArrow=none;strokeWidth=3;strokeColor=#F08E81;html=1;" parent="1" source="1356" target="1501" edge="1">
          <mxGeometry x="188.5" y="51.5" width="100" height="100" as="geometry">
            <mxPoint x="188.5" y="151.5" as="sourcePoint" />
            <mxPoint x="288.5" y="51.5" as="targetPoint" />
          </mxGeometry>
        </mxCell>
        <mxCell id="1503" value="" style="edgeStyle=none;endArrow=none;strokeWidth=3;strokeColor=#F08E81;html=1;" parent="1" source="1356" target="1490" edge="1">
          <mxGeometry x="188.5" y="51.5" width="100" height="100" as="geometry">
            <mxPoint x="188.5" y="151.5" as="sourcePoint" />
            <mxPoint x="288.5" y="51.5" as="targetPoint" />
          </mxGeometry>
        </mxCell>
        <mxCell id="1505" value="" style="edgeStyle=none;endArrow=none;strokeWidth=3;strokeColor=#F08E81;html=1;" parent="1" source="1356" target="1492" edge="1">
          <mxGeometry x="188.5" y="51.5" width="100" height="100" as="geometry">
            <mxPoint x="188.5" y="151.5" as="sourcePoint" />
            <mxPoint x="288.5" y="51.5" as="targetPoint" />
          </mxGeometry>
        </mxCell>
        <mxCell id="1507" value="" style="edgeStyle=none;endArrow=none;strokeWidth=3;strokeColor=#F08E81;html=1;" parent="1" source="1356" target="1494" edge="1">
          <mxGeometry x="188.5" y="51.5" width="100" height="100" as="geometry">
            <mxPoint x="188.5" y="151.5" as="sourcePoint" />
            <mxPoint x="288.5" y="51.5" as="targetPoint" />
          </mxGeometry>
        </mxCell>
        <mxCell id="1509" value="" style="edgeStyle=none;endArrow=none;strokeWidth=3;strokeColor=#F08E81;html=1;" parent="1" source="1356" target="1496" edge="1">
          <mxGeometry x="188.5" y="51.5" width="100" height="100" as="geometry">
            <mxPoint x="188.5" y="151.5" as="sourcePoint" />
            <mxPoint x="288.5" y="51.5" as="targetPoint" />
          </mxGeometry>
        </mxCell>
        <mxCell id="1511" value="" style="edgeStyle=none;endArrow=none;strokeWidth=3;strokeColor=#F08E81;html=1;" parent="1" source="1356" target="1498" edge="1">
          <mxGeometry x="188.5" y="51.5" width="100" height="100" as="geometry">
            <mxPoint x="188.5" y="151.5" as="sourcePoint" />
            <mxPoint x="288.5" y="51.5" as="targetPoint" />
          </mxGeometry>
        </mxCell>
        <mxCell id="1513" value="" style="edgeStyle=none;endArrow=none;strokeWidth=3;strokeColor=#F08E81;html=1;" parent="1" source="1356" target="1500" edge="1">
          <mxGeometry x="188.5" y="51.5" width="100" height="100" as="geometry">
            <mxPoint x="188.5" y="151.5" as="sourcePoint" />
            <mxPoint x="288.5" y="51.5" as="targetPoint" />
          </mxGeometry>
        </mxCell>
        <mxCell id="1514" style="edgeStyle=orthogonalEdgeStyle;rounded=0;html=1;exitX=0.75;exitY=0;entryX=0.75;entryY=0;startArrow=none;startFill=0;endArrow=block;endFill=1;jettySize=auto;orthogonalLoop=1;strokeColor=#12aab5;strokeWidth=6;fontSize=20;fontColor=#2F5B7C;" parent="1" edge="1">
          <mxGeometry relative="1" as="geometry">
            <mxPoint x="1611" y="371.5" as="sourcePoint" />
            <mxPoint x="1611" y="371.5" as="targetPoint" />
          </mxGeometry>
        </mxCell>
        <mxCell id="1515" value="ClasificaciÃ³n de la Contabilidad" style="ellipse;whiteSpace=wrap;html=1;shadow=0;fontFamily=Helvetica;fontSize=30;fontColor=#2F5B7C;align=center;strokeColor=#2F5B7C;strokeWidth=6;fillColor=#FFFFFF;fontStyle=1;gradientColor=none;" parent="1" vertex="1">
          <mxGeometry x="961" y="676.5" width="270" height="270" as="geometry" />
        </mxCell>
        <mxCell id="1516" value="Contabilidad de Costos" style="ellipse;whiteSpace=wrap;html=1;shadow=0;fontFamily=Helvetica;fontSize=20;fontColor=#FFFFFF;align=center;strokeWidth=3;fillColor=#736ca8;strokeColor=none;" parent="1" vertex="1">
          <mxGeometry x="312" y="721.5" width="120" height="120" as="geometry" />
        </mxCell>
        <mxCell id="1517" value="Petrolera" style="rounded=1;fillColor=#a29dc5;strokeColor=none;strokeWidth=3;shadow=0;html=1;fontColor=#FFFFFF;" parent="1" vertex="1">
          <mxGeometry x="210" y="590" width="120" height="40" as="geometry" />
        </mxCell>
        <mxCell id="N-JNO2pC3MTRMVF4ANTs-1717" value="" style="edgeStyle=orthogonalEdgeStyle;rounded=0;orthogonalLoop=1;jettySize=auto;html=1;labelBackgroundColor=#009900;fontSize=17;fontColor=#FF0000;" edge="1" parent="1" source="1518" target="N-JNO2pC3MTRMVF4ANTs-1716">
          <mxGeometry relative="1" as="geometry" />
        </mxCell>
        <mxCell id="1518" value="Industrial" style="rounded=1;fillColor=#a29dc5;strokeColor=none;strokeWidth=3;shadow=0;html=1;fontColor=#FFFFFF;" parent="1" vertex="1">
          <mxGeometry x="391.75" y="590" width="120" height="40" as="geometry" />
        </mxCell>
        <mxCell id="N-JNO2pC3MTRMVF4ANTs-1718" value="" style="edgeStyle=orthogonalEdgeStyle;rounded=0;orthogonalLoop=1;jettySize=auto;html=1;labelBackgroundColor=#009900;fontSize=17;fontColor=#FF0000;" edge="1" parent="1" source="1519" target="N-JNO2pC3MTRMVF4ANTs-1714">
          <mxGeometry relative="1" as="geometry" />
        </mxCell>
        <mxCell id="1519" value="Minera" style="rounded=1;fillColor=#a29dc5;strokeColor=none;strokeWidth=3;shadow=0;html=1;fontColor=#FFFFFF;" parent="1" vertex="1">
          <mxGeometry x="490" y="681.5" width="120" height="40" as="geometry" />
        </mxCell>
        <mxCell id="N-JNO2pC3MTRMVF4ANTs-1722" value="" style="edgeStyle=orthogonalEdgeStyle;rounded=0;orthogonalLoop=1;jettySize=auto;html=1;labelBackgroundColor=#009900;fontSize=17;fontColor=#FF0000;" edge="1" parent="1" source="1522" target="N-JNO2pC3MTRMVF4ANTs-1706">
          <mxGeometry relative="1" as="geometry" />
        </mxCell>
        <mxCell id="1522" value="AgrÃ­cola" style="rounded=1;fillColor=#a29dc5;strokeColor=none;strokeWidth=3;shadow=0;html=1;fontColor=#FFFFFF;" parent="1" vertex="1">
          <mxGeometry x="80" y="666.5" width="120" height="40" as="geometry" />
        </mxCell>
        <mxCell id="N-JNO2pC3MTRMVF4ANTs-1719" value="" style="edgeStyle=orthogonalEdgeStyle;rounded=0;orthogonalLoop=1;jettySize=auto;html=1;labelBackgroundColor=#009900;strokeColor=#FF0000;fontSize=17;fontColor=#FF0000;" edge="1" parent="1" source="1526" target="N-JNO2pC3MTRMVF4ANTs-1712">
          <mxGeometry relative="1" as="geometry" />
        </mxCell>
        <mxCell id="N-JNO2pC3MTRMVF4ANTs-1733" value="" style="edgeStyle=orthogonalEdgeStyle;rounded=0;orthogonalLoop=1;jettySize=auto;html=1;labelBackgroundColor=#009900;fontSize=17;fontColor=#FF0000;" edge="1" parent="1" source="1526" target="N-JNO2pC3MTRMVF4ANTs-1712">
          <mxGeometry relative="1" as="geometry" />
        </mxCell>
        <mxCell id="1526" value="Forestal" style="rounded=1;fillColor=#a29dc5;strokeColor=none;strokeWidth=3;shadow=0;html=1;fontColor=#FFFFFF;" parent="1" vertex="1">
          <mxGeometry x="450" y="870.75" width="120" height="40" as="geometry" />
        </mxCell>
        <mxCell id="N-JNO2pC3MTRMVF4ANTs-1720" value="" style="edgeStyle=orthogonalEdgeStyle;rounded=0;orthogonalLoop=1;jettySize=auto;html=1;labelBackgroundColor=#009900;fontSize=17;fontColor=#FF0000;" edge="1" parent="1" source="1527" target="N-JNO2pC3MTRMVF4ANTs-1710">
          <mxGeometry relative="1" as="geometry" />
        </mxCell>
        <mxCell id="1527" value="Construcciones" style="rounded=1;fillColor=#a29dc5;strokeColor=none;strokeWidth=3;shadow=0;html=1;fontColor=#FFFFFF;" parent="1" vertex="1">
          <mxGeometry x="180" y="886.5" width="120" height="40" as="geometry" />
        </mxCell>
        <mxCell id="1528" value="" style="edgeStyle=none;endArrow=none;strokeWidth=3;strokeColor=#A29DC5;html=1;" parent="1" source="1516" target="1517" edge="1">
          <mxGeometry x="-1498" y="-303.5" width="100" height="100" as="geometry">
            <mxPoint x="-1498" y="-203.5" as="sourcePoint" />
            <mxPoint x="-1398" y="-303.5" as="targetPoint" />
          </mxGeometry>
        </mxCell>
        <mxCell id="N-JNO2pC3MTRMVF4ANTs-1721" value="" style="edgeStyle=orthogonalEdgeStyle;rounded=0;orthogonalLoop=1;jettySize=auto;html=1;labelBackgroundColor=#009900;fontSize=17;fontColor=#FF0000;" edge="1" parent="1" source="1529" target="N-JNO2pC3MTRMVF4ANTs-1708">
          <mxGeometry relative="1" as="geometry" />
        </mxCell>
        <mxCell id="1529" value="Ganadera" style="rounded=1;fillColor=#a29dc5;strokeColor=none;strokeWidth=3;shadow=0;html=1;fontColor=#FFFFFF;" parent="1" vertex="1">
          <mxGeometry x="60" y="770" width="120" height="40" as="geometry" />
        </mxCell>
        <mxCell id="1530" value="" style="edgeStyle=none;endArrow=none;strokeWidth=3;strokeColor=#A29DC5;html=1;entryX=0.75;entryY=1;entryDx=0;entryDy=0;" parent="1" source="1516" target="1518" edge="1">
          <mxGeometry x="-1498" y="-303.5" width="100" height="100" as="geometry">
            <mxPoint x="-1498" y="-203.5" as="sourcePoint" />
            <mxPoint x="-1398" y="-303.5" as="targetPoint" />
            <Array as="points">
              <mxPoint x="390" y="710" />
              <mxPoint x="410" y="617" />
              <mxPoint x="390" y="602" />
            </Array>
          </mxGeometry>
        </mxCell>
        <mxCell id="1531" value="" style="edgeStyle=none;endArrow=none;strokeWidth=3;strokeColor=#A29DC5;html=1;" parent="1" source="1516" target="1519" edge="1">
          <mxGeometry x="-1498" y="-303.5" width="100" height="100" as="geometry">
            <mxPoint x="-1498" y="-203.5" as="sourcePoint" />
            <mxPoint x="-1398" y="-303.5" as="targetPoint" />
            <Array as="points">
              <mxPoint x="420" y="750" />
            </Array>
          </mxGeometry>
        </mxCell>
        <mxCell id="1534" value="" style="edgeStyle=none;endArrow=none;strokeWidth=3;strokeColor=#A29DC5;html=1;" parent="1" source="1516" target="1522" edge="1">
          <mxGeometry x="-1498" y="-303.5" width="100" height="100" as="geometry">
            <mxPoint x="-1498" y="-203.5" as="sourcePoint" />
            <mxPoint x="-1398" y="-303.5" as="targetPoint" />
          </mxGeometry>
        </mxCell>
        <mxCell id="1538" value="" style="edgeStyle=none;endArrow=none;strokeWidth=3;strokeColor=#A29DC5;html=1;" parent="1" source="1516" target="1526" edge="1">
          <mxGeometry x="-1498" y="-303.5" width="100" height="100" as="geometry">
            <mxPoint x="-1498" y="-203.5" as="sourcePoint" />
            <mxPoint x="-1398" y="-303.5" as="targetPoint" />
          </mxGeometry>
        </mxCell>
        <mxCell id="1539" value="" style="edgeStyle=none;endArrow=none;strokeWidth=3;strokeColor=#A29DC5;html=1;" parent="1" source="1516" target="1527" edge="1">
          <mxGeometry x="-1498" y="-303.5" width="100" height="100" as="geometry">
            <mxPoint x="-1498" y="-203.5" as="sourcePoint" />
            <mxPoint x="-1398" y="-303.5" as="targetPoint" />
          </mxGeometry>
        </mxCell>
        <mxCell id="1540" value="" style="edgeStyle=none;endArrow=none;strokeWidth=3;strokeColor=#A29DC5;html=1;" parent="1" source="1516" target="1529" edge="1">
          <mxGeometry x="-1498" y="-303.5" width="100" height="100" as="geometry">
            <mxPoint x="-1498" y="-203.5" as="sourcePoint" />
            <mxPoint x="-1398" y="-303.5" as="targetPoint" />
          </mxGeometry>
        </mxCell>
        <mxCell id="1542" style="edgeStyle=none;rounded=0;html=1;exitX=0.5;exitY=1;endArrow=none;endFill=0;jettySize=auto;orthogonalLoop=1;strokeColor=#736CA8;strokeWidth=2;fillColor=#64bbe2;fontSize=20;fontColor=#23445D;" parent="1" source="1529" target="1529" edge="1">
          <mxGeometry relative="1" as="geometry" />
        </mxCell>
        <mxCell id="N-JNO2pC3MTRMVF4ANTs-1557" value="PÃBLICAS" style="rounded=0;whiteSpace=wrap;html=1;fontSize=18;" vertex="1" parent="1">
          <mxGeometry x="1936" y="891.5" width="124" height="18.5" as="geometry" />
        </mxCell>
        <mxCell id="N-JNO2pC3MTRMVF4ANTs-1582" value="" style="endArrow=classic;startArrow=classic;html=1;fontSize=18;fillColor=#0050ef;strokeColor=#FF0000;" edge="1" parent="1">
          <mxGeometry width="50" height="50" relative="1" as="geometry">
            <mxPoint x="2000" y="1103.5" as="sourcePoint" />
            <mxPoint x="2000" y="1060" as="targetPoint" />
            <Array as="points">
              <mxPoint x="2000" y="1060" />
            </Array>
          </mxGeometry>
        </mxCell>
        <mxCell id="N-JNO2pC3MTRMVF4ANTs-1584" value="gobierno" style="rounded=1;whiteSpace=wrap;html=1;fontSize=18;fillColor=#dae8fc;strokeColor=#6c8ebf;" vertex="1" parent="1">
          <mxGeometry x="1860" y="1200" width="120" height="60" as="geometry" />
        </mxCell>
        <mxCell id="N-JNO2pC3MTRMVF4ANTs-1585" value="Ministerio de Finanzas" style="rounded=1;whiteSpace=wrap;html=1;fontSize=18;fillColor=#dae8fc;strokeColor=#6c8ebf;" vertex="1" parent="1">
          <mxGeometry x="2056" y="1201.5" width="120" height="60" as="geometry" />
        </mxCell>
        <mxCell id="N-JNO2pC3MTRMVF4ANTs-1586" value="" style="endArrow=none;html=1;fontSize=18;" edge="1" parent="1">
          <mxGeometry width="50" height="50" relative="1" as="geometry">
            <mxPoint x="1920" y="1160" as="sourcePoint" />
            <mxPoint x="2120" y="1160" as="targetPoint" />
          </mxGeometry>
        </mxCell>
        <mxCell id="N-JNO2pC3MTRMVF4ANTs-1587" value="" style="endArrow=none;html=1;fontSize=18;" edge="1" parent="1">
          <mxGeometry width="50" height="50" relative="1" as="geometry">
            <mxPoint x="1919.5" y="1200" as="sourcePoint" />
            <mxPoint x="1919.5" y="1160" as="targetPoint" />
          </mxGeometry>
        </mxCell>
        <mxCell id="N-JNO2pC3MTRMVF4ANTs-1589" value="" style="endArrow=none;html=1;fontSize=18;" edge="1" parent="1">
          <mxGeometry width="50" height="50" relative="1" as="geometry">
            <mxPoint x="2119" y="1201.5" as="sourcePoint" />
            <mxPoint x="2119" y="1161.5" as="targetPoint" />
          </mxGeometry>
        </mxCell>
        <mxCell id="N-JNO2pC3MTRMVF4ANTs-1590" value="Recursos que maneja" style="rounded=1;whiteSpace=wrap;html=1;fontSize=18;fillColor=#f8cecc;strokeColor=#b85450;fontColor=#FF0000;" vertex="1" parent="1">
          <mxGeometry x="1940" y="1100" width="120" height="60" as="geometry" />
        </mxCell>
        <mxCell id="N-JNO2pC3MTRMVF4ANTs-1591" value="" style="endArrow=none;html=1;fontSize=18;" edge="1" parent="1">
          <mxGeometry width="50" height="50" relative="1" as="geometry">
            <mxPoint x="1780" y="1010" as="sourcePoint" />
            <mxPoint x="1840" y="1010" as="targetPoint" />
          </mxGeometry>
        </mxCell>
        <mxCell id="N-JNO2pC3MTRMVF4ANTs-1592" value="" style="endArrow=none;html=1;fontSize=18;" edge="1" parent="1">
          <mxGeometry width="50" height="50" relative="1" as="geometry">
            <mxPoint x="1704" y="912" as="sourcePoint" />
            <mxPoint x="1754" y="911.5" as="targetPoint" />
          </mxGeometry>
        </mxCell>
        <mxCell id="N-JNO2pC3MTRMVF4ANTs-1593" value="" style="endArrow=none;html=1;fontSize=18;" edge="1" parent="1">
          <mxGeometry width="50" height="50" relative="1" as="geometry">
            <mxPoint x="2160" y="1050" as="sourcePoint" />
            <mxPoint x="2160" y="1020" as="targetPoint" />
          </mxGeometry>
        </mxCell>
        <mxCell id="N-JNO2pC3MTRMVF4ANTs-1594" value="&lt;ul style=&quot;font-size: 17px&quot;&gt;&lt;li&gt;Petroecuador&lt;/li&gt;&lt;li&gt;cnel&amp;nbsp;&lt;/li&gt;&lt;li&gt;cnt&lt;/li&gt;&lt;/ul&gt;" style="rounded=1;whiteSpace=wrap;html=1;fontSize=18;" vertex="1" parent="1">
          <mxGeometry x="1560" y="886.5" width="140" height="60" as="geometry" />
        </mxCell>
        <mxCell id="N-JNO2pC3MTRMVF4ANTs-1595" value="&lt;div style=&quot;text-align: justify&quot;&gt;&lt;span style=&quot;font-size: 15px&quot;&gt;Seguridad ciudanÃ­a y la integridad territorial&lt;/span&gt;&lt;/div&gt;" style="rounded=1;whiteSpace=wrap;html=1;fontSize=18;" vertex="1" parent="1">
          <mxGeometry x="1660" y="980" width="130" height="60" as="geometry" />
        </mxCell>
        <mxCell id="N-JNO2pC3MTRMVF4ANTs-1605" value="" style="edgeStyle=orthogonalEdgeStyle;rounded=0;orthogonalLoop=1;jettySize=auto;html=1;fontSize=18;" edge="1" parent="1" source="N-JNO2pC3MTRMVF4ANTs-1596" target="1437">
          <mxGeometry relative="1" as="geometry" />
        </mxCell>
        <mxCell id="N-JNO2pC3MTRMVF4ANTs-1596" value="Lleva adelante las polÃ­ticas del gobierno" style="rounded=1;whiteSpace=wrap;html=1;fontSize=17;" vertex="1" parent="1">
          <mxGeometry x="2000" y="550" width="120" height="60" as="geometry" />
        </mxCell>
        <mxCell id="N-JNO2pC3MTRMVF4ANTs-1597" value="&lt;font style=&quot;font-size: 17px&quot;&gt;DivisiÃ³n polÃ­tica administrativa del estado&lt;/font&gt;" style="rounded=1;whiteSpace=wrap;html=1;fontSize=18;" vertex="1" parent="1">
          <mxGeometry x="2280" y="706.5" width="120" height="60" as="geometry" />
        </mxCell>
        <mxCell id="N-JNO2pC3MTRMVF4ANTs-1598" value="&lt;font style=&quot;font-size: 17px&quot;&gt;Atienden a las necesidades de las zonas rurales&lt;/font&gt;" style="rounded=1;whiteSpace=wrap;html=1;fontSize=18;" vertex="1" parent="1">
          <mxGeometry x="2320" y="870.75" width="130" height="69.25" as="geometry" />
        </mxCell>
        <mxCell id="N-JNO2pC3MTRMVF4ANTs-1599" value="&lt;font style=&quot;font-size: 17px&quot;&gt;Brindan educaciÃ³n&lt;/font&gt;" style="rounded=1;whiteSpace=wrap;html=1;fontSize=18;" vertex="1" parent="1">
          <mxGeometry x="2130" y="1050" width="120" height="60" as="geometry" />
        </mxCell>
        <mxCell id="N-JNO2pC3MTRMVF4ANTs-1600" value="seguridad Nacional" style="rounded=1;whiteSpace=wrap;html=1;fontSize=17;" vertex="1" parent="1">
          <mxGeometry x="1800" y="596.5" width="120" height="60" as="geometry" />
        </mxCell>
        <mxCell id="N-JNO2pC3MTRMVF4ANTs-1601" value="" style="endArrow=none;html=1;fontSize=18;" edge="1" parent="1">
          <mxGeometry width="50" height="50" relative="1" as="geometry">
            <mxPoint x="1860" y="690" as="sourcePoint" />
            <mxPoint x="1860" y="660" as="targetPoint" />
          </mxGeometry>
        </mxCell>
        <mxCell id="N-JNO2pC3MTRMVF4ANTs-1602" value="" style="endArrow=none;html=1;fontSize=18;" edge="1" parent="1">
          <mxGeometry width="50" height="50" relative="1" as="geometry">
            <mxPoint x="2230" y="746.5" as="sourcePoint" />
            <mxPoint x="2280" y="747" as="targetPoint" />
          </mxGeometry>
        </mxCell>
        <mxCell id="N-JNO2pC3MTRMVF4ANTs-1603" value="" style="endArrow=none;html=1;fontSize=18;" edge="1" parent="1">
          <mxGeometry width="50" height="50" relative="1" as="geometry">
            <mxPoint x="2280" y="911.5" as="sourcePoint" />
            <mxPoint x="2320" y="912" as="targetPoint" />
            <Array as="points">
              <mxPoint x="2280" y="911.5" />
            </Array>
          </mxGeometry>
        </mxCell>
        <mxCell id="N-JNO2pC3MTRMVF4ANTs-1606" value="&lt;font color=&quot;#000000&quot;&gt;Contabilidad de organizaciÃ³n de servicios&lt;/font&gt;" style="rounded=1;whiteSpace=wrap;html=1;fontSize=17;fillColor=#d5e8d4;strokeColor=#82b366;" vertex="1" parent="1">
          <mxGeometry x="1636" y="590" width="120" height="60" as="geometry" />
        </mxCell>
        <mxCell id="N-JNO2pC3MTRMVF4ANTs-1607" value="&lt;font color=&quot;#000000&quot;&gt;Contabilidad financiera&lt;/font&gt;" style="rounded=1;whiteSpace=wrap;html=1;fontSize=17;fillColor=#d5e8d4;strokeColor=#82b366;" vertex="1" parent="1">
          <mxGeometry x="2170" y="550" width="120" height="60" as="geometry" />
        </mxCell>
        <mxCell id="N-JNO2pC3MTRMVF4ANTs-1608" value="&lt;font color=&quot;#000000&quot;&gt;Contabilidad financiera&lt;/font&gt;" style="rounded=1;whiteSpace=wrap;html=1;fontSize=17;fillColor=#d5e8d4;strokeColor=#82b366;" vertex="1" parent="1">
          <mxGeometry x="2440" y="701.5" width="120" height="60" as="geometry" />
        </mxCell>
        <mxCell id="N-JNO2pC3MTRMVF4ANTs-1609" value="&lt;font color=&quot;#000000&quot;&gt;Contabilidad financiera&lt;/font&gt;" style="rounded=1;whiteSpace=wrap;html=1;fontSize=17;fillColor=#d5e8d4;strokeColor=#82b366;" vertex="1" parent="1">
          <mxGeometry x="2420" y="970" width="120" height="60" as="geometry" />
        </mxCell>
        <mxCell id="N-JNO2pC3MTRMVF4ANTs-1610" value="&lt;font color=&quot;#000000&quot;&gt;Contabilidad gerencial&lt;/font&gt;" style="rounded=1;whiteSpace=wrap;html=1;fontSize=17;fillColor=#d5e8d4;strokeColor=#82b366;" vertex="1" parent="1">
          <mxGeometry x="2290" y="1066.5" width="120" height="60" as="geometry" />
        </mxCell>
        <mxCell id="N-JNO2pC3MTRMVF4ANTs-1611" value="&lt;font color=&quot;#000000&quot;&gt;Contabilidad de organizaciÃ³n&amp;nbsp;de servicios&lt;/font&gt;" style="rounded=1;whiteSpace=wrap;html=1;fontSize=17;fillColor=#d5e8d4;strokeColor=#82b366;" vertex="1" parent="1">
          <mxGeometry x="1680" y="1080" width="120" height="60" as="geometry" />
        </mxCell>
        <mxCell id="N-JNO2pC3MTRMVF4ANTs-1612" value="Contabilidad por actividad" style="rounded=1;whiteSpace=wrap;html=1;fontSize=17;fillColor=#d5e8d4;strokeColor=#82b366;" vertex="1" parent="1">
          <mxGeometry x="1410" y="880" width="120" height="60" as="geometry" />
        </mxCell>
        <mxCell id="N-JNO2pC3MTRMVF4ANTs-1614" value="" style="shape=flexArrow;endArrow=classic;html=1;fontSize=17;fontColor=#FF0000;strokeColor=#2D7600;fillColor=#60a917;" edge="1" parent="1">
          <mxGeometry width="50" height="50" relative="1" as="geometry">
            <mxPoint x="1756" y="619.5" as="sourcePoint" />
            <mxPoint x="1806" y="620" as="targetPoint" />
          </mxGeometry>
        </mxCell>
        <mxCell id="N-JNO2pC3MTRMVF4ANTs-1615" value="" style="shape=flexArrow;endArrow=classic;html=1;fontSize=17;fontColor=#FF0000;strokeColor=#2D7600;fillColor=#60a917;" edge="1" parent="1">
          <mxGeometry width="50" height="50" relative="1" as="geometry">
            <mxPoint x="2120" y="579.5" as="sourcePoint" />
            <mxPoint x="2170" y="579.5" as="targetPoint" />
          </mxGeometry>
        </mxCell>
        <mxCell id="N-JNO2pC3MTRMVF4ANTs-1616" value="" style="shape=flexArrow;endArrow=classic;html=1;fontSize=17;fontColor=#FF0000;strokeColor=#2D7600;fillColor=#60a917;" edge="1" parent="1">
          <mxGeometry width="50" height="50" relative="1" as="geometry">
            <mxPoint x="2400" y="731" as="sourcePoint" />
            <mxPoint x="2440" y="731.5" as="targetPoint" />
          </mxGeometry>
        </mxCell>
        <mxCell id="N-JNO2pC3MTRMVF4ANTs-1617" value="" style="shape=flexArrow;endArrow=classic;html=1;fontSize=17;fontColor=#FF0000;strokeColor=#2D7600;fillColor=#60a917;" edge="1" parent="1">
          <mxGeometry width="50" height="50" relative="1" as="geometry">
            <mxPoint x="2450" y="931.5" as="sourcePoint" />
            <mxPoint x="2470" y="970" as="targetPoint" />
          </mxGeometry>
        </mxCell>
        <mxCell id="N-JNO2pC3MTRMVF4ANTs-1618" value="" style="shape=flexArrow;endArrow=classic;html=1;fontSize=17;fontColor=#009900;labelBorderColor=#009900;labelBackgroundColor=#009900;strokeColor=#2D7600;fillColor=#60a917;" edge="1" parent="1">
          <mxGeometry width="50" height="50" relative="1" as="geometry">
            <mxPoint x="2250" y="1087.75" as="sourcePoint" />
            <mxPoint x="2290" y="1087.75" as="targetPoint" />
          </mxGeometry>
        </mxCell>
        <mxCell id="N-JNO2pC3MTRMVF4ANTs-1619" value="" style="shape=flexArrow;endArrow=classic;html=1;fontSize=17;fontColor=#009900;labelBackgroundColor=#009900;fillColor=#008a00;strokeColor=#005700;" edge="1" parent="1">
          <mxGeometry width="50" height="50" relative="1" as="geometry">
            <mxPoint x="1724.5" y="1040" as="sourcePoint" />
            <mxPoint x="1724.5" y="1080" as="targetPoint" />
          </mxGeometry>
        </mxCell>
        <mxCell id="N-JNO2pC3MTRMVF4ANTs-1620" value="" style="shape=flexArrow;endArrow=classic;html=1;fontSize=17;fontColor=#FF0000;width=10;endSize=4.98;strokeColor=#2D7600;fillColor=#60a917;" edge="1" parent="1">
          <mxGeometry width="50" height="50" relative="1" as="geometry">
            <mxPoint x="1530" y="916" as="sourcePoint" />
            <mxPoint x="1570" y="916.5" as="targetPoint" />
          </mxGeometry>
        </mxCell>
        <mxCell id="N-JNO2pC3MTRMVF4ANTs-1628" value="Privadas" style="rounded=1;whiteSpace=wrap;html=1;fontSize=17;fontColor=#000000;" vertex="1" parent="1">
          <mxGeometry x="1118.5" y="330" width="90" height="30" as="geometry" />
        </mxCell>
        <mxCell id="N-JNO2pC3MTRMVF4ANTs-1630" value="" style="endArrow=classic;startArrow=classic;html=1;labelBackgroundColor=#009900;fontSize=17;fontColor=#000000;exitX=0.367;exitY=-0.017;exitDx=0;exitDy=0;exitPerimeter=0;strokeColor=#FF0000;" edge="1" parent="1" source="1395">
          <mxGeometry width="50" height="50" relative="1" as="geometry">
            <mxPoint x="1290" y="240" as="sourcePoint" />
            <mxPoint x="1340" y="190" as="targetPoint" />
            <Array as="points">
              <mxPoint x="1334" y="190" />
            </Array>
          </mxGeometry>
        </mxCell>
        <mxCell id="N-JNO2pC3MTRMVF4ANTs-1631" value="" style="endArrow=classic;html=1;labelBackgroundColor=#009900;fontSize=17;fontColor=#000000;exitX=1;exitY=0.5;exitDx=0;exitDy=0;entryX=0;entryY=0.75;entryDx=0;entryDy=0;strokeColor=#FF0000;" edge="1" parent="1" source="1357" target="1395">
          <mxGeometry width="50" height="50" relative="1" as="geometry">
            <mxPoint x="1200" y="430" as="sourcePoint" />
            <mxPoint x="1250" y="380" as="targetPoint" />
          </mxGeometry>
        </mxCell>
        <mxCell id="N-JNO2pC3MTRMVF4ANTs-1632" value="" style="endArrow=classic;startArrow=classic;html=1;labelBackgroundColor=#009900;fontSize=17;fontColor=#000000;entryX=0.5;entryY=1;entryDx=0;entryDy=0;strokeColor=#FF0000;" edge="1" parent="1" target="1389">
          <mxGeometry width="50" height="50" relative="1" as="geometry">
            <mxPoint x="990" y="414" as="sourcePoint" />
            <mxPoint x="1040" y="364" as="targetPoint" />
          </mxGeometry>
        </mxCell>
        <mxCell id="N-JNO2pC3MTRMVF4ANTs-1633" value="" style="endArrow=classic;startArrow=classic;html=1;labelBackgroundColor=#009900;fontSize=17;fontColor=#000000;strokeColor=#FF0000;" edge="1" parent="1" target="1391">
          <mxGeometry width="50" height="50" relative="1" as="geometry">
            <mxPoint x="950" y="280" as="sourcePoint" />
            <mxPoint x="1000" y="230" as="targetPoint" />
          </mxGeometry>
        </mxCell>
        <mxCell id="N-JNO2pC3MTRMVF4ANTs-1634" value="" style="endArrow=classic;startArrow=classic;html=1;labelBackgroundColor=#009900;fontSize=17;fontColor=#000000;strokeColor=#FF0000;" edge="1" parent="1">
          <mxGeometry width="50" height="50" relative="1" as="geometry">
            <mxPoint x="1130" y="160" as="sourcePoint" />
            <mxPoint x="1230" y="160" as="targetPoint" />
          </mxGeometry>
        </mxCell>
        <mxCell id="N-JNO2pC3MTRMVF4ANTs-1635" value="" style="endArrow=none;html=1;labelBackgroundColor=#009900;fontSize=17;fontColor=#000000;fillColor=#f8cecc;strokeColor=#FF0000;" edge="1" parent="1">
          <mxGeometry width="50" height="50" relative="1" as="geometry">
            <mxPoint x="1200" y="460" as="sourcePoint" />
            <mxPoint x="1200" y="410" as="targetPoint" />
          </mxGeometry>
        </mxCell>
        <mxCell id="N-JNO2pC3MTRMVF4ANTs-1636" value="Recursos que maneja" style="rounded=1;whiteSpace=wrap;html=1;fontSize=17;fillColor=#f8cecc;strokeColor=#FF0000;fontColor=#FF0000;" vertex="1" parent="1">
          <mxGeometry x="1160" y="450" width="120" height="60" as="geometry" />
        </mxCell>
        <mxCell id="N-JNO2pC3MTRMVF4ANTs-1638" value="" style="endArrow=none;html=1;labelBackgroundColor=#009900;strokeColor=#FF0000;fontSize=17;fontColor=#FF0000;" edge="1" parent="1">
          <mxGeometry width="50" height="50" relative="1" as="geometry">
            <mxPoint x="1480" y="600" as="sourcePoint" />
            <mxPoint x="1480" y="560" as="targetPoint" />
          </mxGeometry>
        </mxCell>
        <mxCell id="N-JNO2pC3MTRMVF4ANTs-1639" value="" style="endArrow=none;html=1;labelBackgroundColor=#009900;strokeColor=#FF0000;fontSize=17;fontColor=#FF0000;" edge="1" parent="1">
          <mxGeometry width="50" height="50" relative="1" as="geometry">
            <mxPoint x="1320" y="600" as="sourcePoint" />
            <mxPoint x="1320" y="559.5" as="targetPoint" />
          </mxGeometry>
        </mxCell>
        <mxCell id="N-JNO2pC3MTRMVF4ANTs-1640" value="" style="endArrow=none;html=1;labelBackgroundColor=#009900;strokeColor=#FF0000;fontSize=17;fontColor=#FF0000;" edge="1" parent="1">
          <mxGeometry width="50" height="50" relative="1" as="geometry">
            <mxPoint x="1150" y="600" as="sourcePoint" />
            <mxPoint x="1150" y="561.5" as="targetPoint" />
          </mxGeometry>
        </mxCell>
        <mxCell id="N-JNO2pC3MTRMVF4ANTs-1641" value="" style="endArrow=none;html=1;labelBackgroundColor=#009900;strokeColor=#FF0000;fontSize=17;fontColor=#FF0000;" edge="1" parent="1">
          <mxGeometry width="50" height="50" relative="1" as="geometry">
            <mxPoint x="1150" y="565" as="sourcePoint" />
            <mxPoint x="1485" y="560" as="targetPoint" />
          </mxGeometry>
        </mxCell>
        <mxCell id="N-JNO2pC3MTRMVF4ANTs-1642" value="" style="endArrow=none;html=1;labelBackgroundColor=#009900;strokeColor=#FF0000;fontSize=17;fontColor=#FF0000;entryX=0.5;entryY=1;entryDx=0;entryDy=0;" edge="1" parent="1" target="N-JNO2pC3MTRMVF4ANTs-1636">
          <mxGeometry width="50" height="50" relative="1" as="geometry">
            <mxPoint x="1220" y="560" as="sourcePoint" />
            <mxPoint x="1245" y="526.5" as="targetPoint" />
          </mxGeometry>
        </mxCell>
        <mxCell id="N-JNO2pC3MTRMVF4ANTs-1643" value="Prestamos bancarios" style="rounded=1;whiteSpace=wrap;html=1;strokeColor=#6c8ebf;fontSize=17;fillColor=#dae8fc;" vertex="1" parent="1">
          <mxGeometry x="1420" y="600" width="120" height="60" as="geometry" />
        </mxCell>
        <mxCell id="N-JNO2pC3MTRMVF4ANTs-1644" value="Accionistas&amp;nbsp;" style="rounded=1;whiteSpace=wrap;html=1;strokeColor=#6c8ebf;fontSize=17;fillColor=#dae8fc;" vertex="1" parent="1">
          <mxGeometry x="1270" y="600" width="120" height="60" as="geometry" />
        </mxCell>
        <mxCell id="N-JNO2pC3MTRMVF4ANTs-1645" value="aportes de los socios&amp;nbsp;" style="rounded=1;whiteSpace=wrap;html=1;strokeColor=#6c8ebf;fontSize=17;fillColor=#dae8fc;" vertex="1" parent="1">
          <mxGeometry x="1130" y="600" width="120" height="60" as="geometry" />
        </mxCell>
        <mxCell id="N-JNO2pC3MTRMVF4ANTs-1646" value="Contabilidad de organizaciÃ³n de servicios" style="rounded=1;whiteSpace=wrap;html=1;strokeColor=#82b366;fontSize=17;fillColor=#d5e8d4;" vertex="1" parent="1">
          <mxGeometry x="650" y="410" width="120" height="60" as="geometry" />
        </mxCell>
        <mxCell id="N-JNO2pC3MTRMVF4ANTs-1647" value="&lt;font color=&quot;#000000&quot;&gt;Brindan servicios de hospedaje&lt;/font&gt;" style="rounded=1;whiteSpace=wrap;html=1;fontSize=17;fontColor=#FF0000;" vertex="1" parent="1">
          <mxGeometry x="818.5" y="399.25" width="120" height="60" as="geometry" />
        </mxCell>
        <mxCell id="N-JNO2pC3MTRMVF4ANTs-1648" value="Contabilidad de organizaciÃ³n de servicios" style="rounded=1;whiteSpace=wrap;html=1;strokeColor=#82b366;fontSize=17;fillColor=#d5e8d4;" vertex="1" parent="1">
          <mxGeometry x="610" y="270" width="120" height="60" as="geometry" />
        </mxCell>
        <mxCell id="N-JNO2pC3MTRMVF4ANTs-1649" value="&lt;font color=&quot;#000000&quot;&gt;Brindan servicios de viajes terrestre&lt;/font&gt;" style="rounded=1;whiteSpace=wrap;html=1;fontSize=17;fontColor=#FF0000;" vertex="1" parent="1">
          <mxGeometry x="763.5" y="278.5" width="120" height="60" as="geometry" />
        </mxCell>
        <mxCell id="N-JNO2pC3MTRMVF4ANTs-1650" value="Contabilidad de organizaciÃ³n de servicios" style="rounded=1;whiteSpace=wrap;html=1;strokeColor=#82b366;fontSize=17;fillColor=#d5e8d4;" vertex="1" parent="1">
          <mxGeometry x="698.5" y="121.5" width="120" height="60" as="geometry" />
        </mxCell>
        <mxCell id="N-JNO2pC3MTRMVF4ANTs-1651" value="&lt;font color=&quot;#000000&quot;&gt;Brinda servicios de viajes aÃ©reos&lt;/font&gt;" style="rounded=1;whiteSpace=wrap;html=1;fontSize=17;fontColor=#FF0000;" vertex="1" parent="1">
          <mxGeometry x="860" y="130" width="120" height="60" as="geometry" />
        </mxCell>
        <mxCell id="N-JNO2pC3MTRMVF4ANTs-1652" value="Contabilidad gerencial" style="rounded=1;whiteSpace=wrap;html=1;strokeColor=#82b366;fontSize=17;fillColor=#d5e8d4;" vertex="1" parent="1">
          <mxGeometry x="1550" y="121.5" width="120" height="60" as="geometry" />
        </mxCell>
        <mxCell id="N-JNO2pC3MTRMVF4ANTs-1653" value="&lt;font color=&quot;#000000&quot;&gt;Brinda educaciÃ³n&lt;/font&gt;" style="rounded=1;whiteSpace=wrap;html=1;fontSize=17;fontColor=#FF0000;" vertex="1" parent="1">
          <mxGeometry x="1380" y="131.5" width="120" height="60" as="geometry" />
        </mxCell>
        <mxCell id="N-JNO2pC3MTRMVF4ANTs-1654" value="Contabilidad por actividad" style="rounded=1;whiteSpace=wrap;html=1;strokeColor=#82b366;fontSize=17;fillColor=#d5e8d4;" vertex="1" parent="1">
          <mxGeometry x="1620" y="339.25" width="120" height="60" as="geometry" />
        </mxCell>
        <mxCell id="N-JNO2pC3MTRMVF4ANTs-1655" value="&lt;font color=&quot;#000000&quot;&gt;Venta de comida&lt;/font&gt;" style="rounded=1;whiteSpace=wrap;html=1;fontSize=17;fontColor=#FF0000;" vertex="1" parent="1">
          <mxGeometry x="1460" y="338.5" width="120" height="60" as="geometry" />
        </mxCell>
        <mxCell id="N-JNO2pC3MTRMVF4ANTs-1657" value="" style="endArrow=none;html=1;labelBackgroundColor=#009900;fontSize=17;fontColor=#FF0000;" edge="1" parent="1">
          <mxGeometry width="50" height="50" relative="1" as="geometry">
            <mxPoint x="970" y="186.5" as="sourcePoint" />
            <mxPoint x="1020" y="136.5" as="targetPoint" />
          </mxGeometry>
        </mxCell>
        <mxCell id="N-JNO2pC3MTRMVF4ANTs-1659" value="" style="endArrow=none;html=1;labelBackgroundColor=#009900;fontSize=17;fontColor=#FF0000;" edge="1" parent="1">
          <mxGeometry width="50" height="50" relative="1" as="geometry">
            <mxPoint x="870" y="331.5" as="sourcePoint" />
            <mxPoint x="920" y="281.5" as="targetPoint" />
          </mxGeometry>
        </mxCell>
        <mxCell id="N-JNO2pC3MTRMVF4ANTs-1661" value="" style="endArrow=none;html=1;labelBackgroundColor=#009900;fontSize=17;fontColor=#FF0000;" edge="1" parent="1">
          <mxGeometry width="50" height="50" relative="1" as="geometry">
            <mxPoint x="938.5" y="459.25" as="sourcePoint" />
            <mxPoint x="988.5" y="409.25" as="targetPoint" />
          </mxGeometry>
        </mxCell>
        <mxCell id="N-JNO2pC3MTRMVF4ANTs-1663" value="" style="endArrow=none;html=1;labelBackgroundColor=#009900;fontSize=17;fontColor=#FF0000;" edge="1" parent="1">
          <mxGeometry width="50" height="50" relative="1" as="geometry">
            <mxPoint x="1340" y="180" as="sourcePoint" />
            <mxPoint x="1390" y="130" as="targetPoint" />
          </mxGeometry>
        </mxCell>
        <mxCell id="N-JNO2pC3MTRMVF4ANTs-1665" value="" style="endArrow=none;html=1;labelBackgroundColor=#009900;fontSize=17;fontColor=#FF0000;" edge="1" parent="1">
          <mxGeometry width="50" height="50" relative="1" as="geometry">
            <mxPoint x="1410" y="398.5" as="sourcePoint" />
            <mxPoint x="1460" y="348.5" as="targetPoint" />
          </mxGeometry>
        </mxCell>
        <mxCell id="N-JNO2pC3MTRMVF4ANTs-1671" value="" style="shape=flexArrow;endArrow=classic;html=1;labelBackgroundColor=#009900;fontSize=17;fontColor=#FF0000;strokeColor=#2D7600;fillColor=#60a917;" edge="1" parent="1">
          <mxGeometry width="50" height="50" relative="1" as="geometry">
            <mxPoint x="818.5" y="161" as="sourcePoint" />
            <mxPoint x="858.5" y="161" as="targetPoint" />
          </mxGeometry>
        </mxCell>
        <mxCell id="N-JNO2pC3MTRMVF4ANTs-1672" value="" style="shape=flexArrow;endArrow=classic;html=1;labelBackgroundColor=#009900;fontSize=17;fontColor=#FF0000;strokeColor=#2D7600;fillColor=#60a917;" edge="1" parent="1">
          <mxGeometry width="50" height="50" relative="1" as="geometry">
            <mxPoint x="728.5" y="308" as="sourcePoint" />
            <mxPoint x="770" y="308" as="targetPoint" />
          </mxGeometry>
        </mxCell>
        <mxCell id="N-JNO2pC3MTRMVF4ANTs-1673" value="" style="shape=flexArrow;endArrow=classic;html=1;labelBackgroundColor=#009900;fontSize=17;fontColor=#FF0000;strokeColor=#2D7600;fillColor=#60a917;" edge="1" parent="1">
          <mxGeometry width="50" height="50" relative="1" as="geometry">
            <mxPoint x="770" y="439.5" as="sourcePoint" />
            <mxPoint x="820.5" y="439.5" as="targetPoint" />
          </mxGeometry>
        </mxCell>
        <mxCell id="N-JNO2pC3MTRMVF4ANTs-1674" value="" style="shape=flexArrow;endArrow=classic;html=1;labelBackgroundColor=#009900;fontSize=17;fontColor=#FF0000;strokeColor=#2D7600;fillColor=#60a917;" edge="1" parent="1">
          <mxGeometry width="50" height="50" relative="1" as="geometry">
            <mxPoint x="1500" y="161" as="sourcePoint" />
            <mxPoint x="1550" y="161" as="targetPoint" />
          </mxGeometry>
        </mxCell>
        <mxCell id="N-JNO2pC3MTRMVF4ANTs-1675" value="" style="shape=flexArrow;endArrow=classic;html=1;labelBackgroundColor=#009900;fontSize=17;fontColor=#FF0000;strokeColor=#2D7600;fillColor=#60a917;" edge="1" parent="1">
          <mxGeometry width="50" height="50" relative="1" as="geometry">
            <mxPoint x="1580" y="368" as="sourcePoint" />
            <mxPoint x="1620" y="368" as="targetPoint" />
          </mxGeometry>
        </mxCell>
        <mxCell id="N-JNO2pC3MTRMVF4ANTs-1679" value="" style="endArrow=none;html=1;labelBackgroundColor=#009900;fontSize=17;fontColor=#FF0000;entryX=0;entryY=1;entryDx=0;entryDy=0;strokeColor=#FF0000;" edge="1" parent="1" target="1526">
          <mxGeometry width="50" height="50" relative="1" as="geometry">
            <mxPoint x="298.5" y="915.75" as="sourcePoint" />
            <mxPoint x="348.5" y="865.75" as="targetPoint" />
            <Array as="points">
              <mxPoint x="410" y="911" />
            </Array>
          </mxGeometry>
        </mxCell>
        <mxCell id="N-JNO2pC3MTRMVF4ANTs-1680" value="" style="endArrow=none;html=1;labelBackgroundColor=#009900;fontSize=17;fontColor=#FF0000;exitX=0.425;exitY=1.125;exitDx=0;exitDy=0;exitPerimeter=0;strokeColor=#FF0000;" edge="1" parent="1" source="1529">
          <mxGeometry width="50" height="50" relative="1" as="geometry">
            <mxPoint x="150" y="931.5" as="sourcePoint" />
            <mxPoint x="200" y="881.5" as="targetPoint" />
          </mxGeometry>
        </mxCell>
        <mxCell id="N-JNO2pC3MTRMVF4ANTs-1681" value="" style="endArrow=none;html=1;labelBackgroundColor=#009900;fontSize=17;fontColor=#FF0000;entryX=0.433;entryY=0.988;entryDx=0;entryDy=0;entryPerimeter=0;strokeColor=#FF0000;" edge="1" parent="1" target="1522">
          <mxGeometry width="50" height="50" relative="1" as="geometry">
            <mxPoint x="115" y="770" as="sourcePoint" />
            <mxPoint x="165" y="720" as="targetPoint" />
          </mxGeometry>
        </mxCell>
        <mxCell id="N-JNO2pC3MTRMVF4ANTs-1682" value="" style="endArrow=none;html=1;labelBackgroundColor=#009900;fontSize=17;fontColor=#FF0000;entryX=0;entryY=0.75;entryDx=0;entryDy=0;strokeColor=#FF0000;" edge="1" parent="1" target="1517">
          <mxGeometry width="50" height="50" relative="1" as="geometry">
            <mxPoint x="150" y="666.5" as="sourcePoint" />
            <mxPoint x="200" y="616.5" as="targetPoint" />
          </mxGeometry>
        </mxCell>
        <mxCell id="N-JNO2pC3MTRMVF4ANTs-1683" value="" style="endArrow=none;html=1;labelBackgroundColor=#009900;fontSize=17;fontColor=#FF0000;strokeColor=#FF0000;" edge="1" parent="1">
          <mxGeometry width="50" height="50" relative="1" as="geometry">
            <mxPoint x="330" y="610" as="sourcePoint" />
            <mxPoint x="390" y="610" as="targetPoint" />
          </mxGeometry>
        </mxCell>
        <mxCell id="N-JNO2pC3MTRMVF4ANTs-1684" value="" style="endArrow=none;html=1;labelBackgroundColor=#009900;fontSize=17;fontColor=#FF0000;strokeColor=#FF0000;" edge="1" parent="1" target="1518">
          <mxGeometry width="50" height="50" relative="1" as="geometry">
            <mxPoint x="550" y="681.5" as="sourcePoint" />
            <mxPoint x="600" y="631.5" as="targetPoint" />
          </mxGeometry>
        </mxCell>
        <mxCell id="N-JNO2pC3MTRMVF4ANTs-1685" value="" style="endArrow=none;html=1;labelBackgroundColor=#009900;fontSize=17;fontColor=#FF0000;entryX=0.5;entryY=1;entryDx=0;entryDy=0;strokeColor=#FF0000;" edge="1" parent="1" target="1519">
          <mxGeometry width="50" height="50" relative="1" as="geometry">
            <mxPoint x="525" y="877" as="sourcePoint" />
            <mxPoint x="550" y="730" as="targetPoint" />
          </mxGeometry>
        </mxCell>
        <mxCell id="N-JNO2pC3MTRMVF4ANTs-1686" value="" style="endArrow=classic;startArrow=classic;html=1;labelBackgroundColor=#009900;strokeColor=#FF0000;fontSize=17;fontColor=#FF0000;" edge="1" parent="1">
          <mxGeometry width="50" height="50" relative="1" as="geometry">
            <mxPoint x="350" y="610" as="sourcePoint" />
            <mxPoint x="350" y="570.75" as="targetPoint" />
          </mxGeometry>
        </mxCell>
        <mxCell id="N-JNO2pC3MTRMVF4ANTs-1687" value="Recursos que maneja" style="rounded=1;whiteSpace=wrap;html=1;fontSize=17;fillColor=#f8cecc;strokeColor=#FF0000;" vertex="1" parent="1">
          <mxGeometry x="290" y="510" width="120" height="60" as="geometry" />
        </mxCell>
        <mxCell id="N-JNO2pC3MTRMVF4ANTs-1688" value="" style="endArrow=classic;startArrow=classic;html=1;labelBackgroundColor=#009900;strokeColor=#FF0000;fontSize=17;fontColor=#FF0000;" edge="1" parent="1">
          <mxGeometry width="50" height="50" relative="1" as="geometry">
            <mxPoint x="347" y="505" as="sourcePoint" />
            <mxPoint x="347" y="470" as="targetPoint" />
          </mxGeometry>
        </mxCell>
        <mxCell id="N-JNO2pC3MTRMVF4ANTs-1689" value="" style="endArrow=none;html=1;labelBackgroundColor=#009900;strokeColor=#FF0000;fontSize=17;fontColor=#FF0000;" edge="1" parent="1">
          <mxGeometry width="50" height="50" relative="1" as="geometry">
            <mxPoint x="210" y="469" as="sourcePoint" />
            <mxPoint x="460" y="469" as="targetPoint" />
          </mxGeometry>
        </mxCell>
        <mxCell id="N-JNO2pC3MTRMVF4ANTs-1690" value="" style="endArrow=classic;startArrow=classic;html=1;labelBackgroundColor=#009900;strokeColor=#FF0000;fontSize=17;fontColor=#FF0000;" edge="1" parent="1">
          <mxGeometry width="50" height="50" relative="1" as="geometry">
            <mxPoint x="372" y="950" as="sourcePoint" />
            <mxPoint x="371.5" y="910.75" as="targetPoint" />
          </mxGeometry>
        </mxCell>
        <mxCell id="N-JNO2pC3MTRMVF4ANTs-1691" value="Recursos que maneja" style="rounded=1;whiteSpace=wrap;html=1;fontSize=17;fillColor=#f8cecc;strokeColor=#FF0000;" vertex="1" parent="1">
          <mxGeometry x="312" y="950" width="120" height="60" as="geometry" />
        </mxCell>
        <mxCell id="N-JNO2pC3MTRMVF4ANTs-1693" value="" style="endArrow=classic;startArrow=classic;html=1;labelBackgroundColor=#009900;strokeColor=#FF0000;fontSize=17;fontColor=#FF0000;" edge="1" parent="1">
          <mxGeometry width="50" height="50" relative="1" as="geometry">
            <mxPoint x="280" y="985" as="sourcePoint" />
            <mxPoint x="312" y="985" as="targetPoint" />
          </mxGeometry>
        </mxCell>
        <mxCell id="N-JNO2pC3MTRMVF4ANTs-1694" value="" style="endArrow=classic;startArrow=classic;html=1;labelBackgroundColor=#009900;strokeColor=#FF0000;fontSize=17;fontColor=#FF0000;" edge="1" parent="1">
          <mxGeometry width="50" height="50" relative="1" as="geometry">
            <mxPoint x="432" y="981.5" as="sourcePoint" />
            <mxPoint x="460" y="982" as="targetPoint" />
          </mxGeometry>
        </mxCell>
        <mxCell id="N-JNO2pC3MTRMVF4ANTs-1695" value="PÃºblicas" style="rounded=1;whiteSpace=wrap;html=1;strokeColor=#FF0000;fontSize=17;fontColor=#FF0000;" vertex="1" parent="1">
          <mxGeometry x="360" y="1000" width="72" height="20" as="geometry" />
        </mxCell>
        <mxCell id="N-JNO2pC3MTRMVF4ANTs-1696" value="&lt;font color=&quot;#000000&quot;&gt;Privadas&lt;/font&gt;" style="rounded=1;whiteSpace=wrap;html=1;strokeColor=#FF0000;fontSize=17;fontColor=#FF0000;" vertex="1" parent="1">
          <mxGeometry x="379.25" y="540" width="70.75" height="20" as="geometry" />
        </mxCell>
        <mxCell id="N-JNO2pC3MTRMVF4ANTs-1697" value="&lt;font color=&quot;#000000&quot;&gt;Ministros de cada departamento&lt;/font&gt;&amp;nbsp;" style="rounded=1;whiteSpace=wrap;html=1;strokeColor=#6c8ebf;fontSize=17;fillColor=#dae8fc;" vertex="1" parent="1">
          <mxGeometry x="458.5" y="950" width="120" height="60" as="geometry" />
        </mxCell>
        <mxCell id="N-JNO2pC3MTRMVF4ANTs-1698" value="&lt;font color=&quot;#000000&quot;&gt;Gobierno&lt;/font&gt;" style="rounded=1;whiteSpace=wrap;html=1;strokeColor=#6c8ebf;fontSize=17;fillColor=#dae8fc;" vertex="1" parent="1">
          <mxGeometry x="160" y="960" width="120" height="60" as="geometry" />
        </mxCell>
        <mxCell id="N-JNO2pC3MTRMVF4ANTs-1699" value="" style="endArrow=none;html=1;labelBackgroundColor=#009900;strokeColor=#FF0000;fontSize=17;fontColor=#FF0000;" edge="1" parent="1">
          <mxGeometry width="50" height="50" relative="1" as="geometry">
            <mxPoint x="458.5" y="470" as="sourcePoint" />
            <mxPoint x="459" y="440" as="targetPoint" />
          </mxGeometry>
        </mxCell>
        <mxCell id="N-JNO2pC3MTRMVF4ANTs-1700" value="" style="endArrow=none;html=1;labelBackgroundColor=#009900;strokeColor=#FF0000;fontSize=17;fontColor=#FF0000;" edge="1" parent="1">
          <mxGeometry width="50" height="50" relative="1" as="geometry">
            <mxPoint x="210" y="470" as="sourcePoint" />
            <mxPoint x="210" y="440" as="targetPoint" />
          </mxGeometry>
        </mxCell>
        <mxCell id="N-JNO2pC3MTRMVF4ANTs-1701" value="&lt;font color=&quot;#000000&quot;&gt;Accionista&lt;/font&gt;" style="rounded=1;whiteSpace=wrap;html=1;strokeColor=#6c8ebf;fontSize=17;fillColor=#dae8fc;" vertex="1" parent="1">
          <mxGeometry x="140" y="390" width="120" height="60" as="geometry" />
        </mxCell>
        <mxCell id="N-JNO2pC3MTRMVF4ANTs-1702" value="&lt;font color=&quot;#000000&quot;&gt;Herencias familiares&lt;/font&gt;" style="rounded=1;whiteSpace=wrap;html=1;strokeColor=#6c8ebf;fontSize=17;fillColor=#dae8fc;" vertex="1" parent="1">
          <mxGeometry x="398.5" y="384" width="120" height="60" as="geometry" />
        </mxCell>
        <mxCell id="N-JNO2pC3MTRMVF4ANTs-1703" value="&lt;font color=&quot;#000000&quot;&gt;Contabilidad de gestiÃ³n&lt;/font&gt;" style="rounded=1;whiteSpace=wrap;html=1;fontSize=17;strokeColor=#82b366;fillColor=#d5e8d4;" vertex="1" parent="1">
          <mxGeometry x="-120" y="570" width="120" height="60" as="geometry" />
        </mxCell>
        <mxCell id="N-JNO2pC3MTRMVF4ANTs-1704" value="&lt;font color=&quot;#000000&quot;&gt;ExploraciÃ³n, exportaciÃ³n y refinamiento del petrÃ³leo&lt;/font&gt;" style="rounded=1;whiteSpace=wrap;html=1;fontSize=17;fontColor=#FF0000;" vertex="1" parent="1">
          <mxGeometry x="40" y="550" width="140" height="80" as="geometry" />
        </mxCell>
        <mxCell id="N-JNO2pC3MTRMVF4ANTs-1705" value="&lt;font color=&quot;#000000&quot;&gt;Contabilidad de gestiÃ³n&lt;/font&gt;" style="rounded=1;whiteSpace=wrap;html=1;strokeColor=#82b366;fontSize=17;fillColor=#d5e8d4;" vertex="1" parent="1">
          <mxGeometry x="-240" y="646.5" width="120" height="60" as="geometry" />
        </mxCell>
        <mxCell id="N-JNO2pC3MTRMVF4ANTs-1706" value="&lt;font color=&quot;#000000&quot;&gt;Cultivan la tierra&lt;/font&gt;" style="rounded=1;whiteSpace=wrap;html=1;fontSize=17;fontColor=#FF0000;" vertex="1" parent="1">
          <mxGeometry x="-80" y="646.5" width="120" height="60" as="geometry" />
        </mxCell>
        <mxCell id="N-JNO2pC3MTRMVF4ANTs-1707" value="&lt;font color=&quot;#000000&quot;&gt;Contabilidad de gestiÃ³n&lt;/font&gt;" style="rounded=1;whiteSpace=wrap;html=1;strokeColor=#82b366;fontSize=17;fillColor=#d5e8d4;" vertex="1" parent="1">
          <mxGeometry x="-240" y="766.5" width="120" height="60" as="geometry" />
        </mxCell>
        <mxCell id="N-JNO2pC3MTRMVF4ANTs-1708" value="&lt;font color=&quot;#000000&quot;&gt;Compran y venta de ganado&lt;/font&gt;" style="rounded=1;whiteSpace=wrap;html=1;fontSize=17;fontColor=#FF0000;" vertex="1" parent="1">
          <mxGeometry x="-90" y="766.5" width="120" height="60" as="geometry" />
        </mxCell>
        <mxCell id="N-JNO2pC3MTRMVF4ANTs-1709" value="&lt;font color=&quot;#000000&quot;&gt;Contabilidad de gestiÃ³n&lt;/font&gt;" style="rounded=1;whiteSpace=wrap;html=1;strokeColor=#82b366;fontSize=17;fillColor=#d5e8d4;" vertex="1" parent="1">
          <mxGeometry x="-120" y="876.5" width="120" height="60" as="geometry" />
        </mxCell>
        <mxCell id="N-JNO2pC3MTRMVF4ANTs-1710" value="&lt;font color=&quot;#000000&quot;&gt;Realizan transformaciones en las ciudades&lt;/font&gt;" style="rounded=1;whiteSpace=wrap;html=1;fontSize=17;fontColor=#FF0000;" vertex="1" parent="1">
          <mxGeometry x="30" y="876.5" width="120" height="60" as="geometry" />
        </mxCell>
        <mxCell id="N-JNO2pC3MTRMVF4ANTs-1711" value="&lt;font color=&quot;#000000&quot;&gt;Contabilidad de gestiÃ³n&lt;/font&gt;" style="rounded=1;whiteSpace=wrap;html=1;strokeColor=#82b366;fontSize=17;fillColor=#d5e8d4;" vertex="1" parent="1">
          <mxGeometry x="743.5" y="860.75" width="120" height="60" as="geometry" />
        </mxCell>
        <mxCell id="N-JNO2pC3MTRMVF4ANTs-1712" value="&lt;font color=&quot;#000000&quot;&gt;Realizan cuidados ambientales&lt;/font&gt;" style="rounded=1;whiteSpace=wrap;html=1;fontSize=17;fontColor=#FF0000;" vertex="1" parent="1">
          <mxGeometry x="600" y="860.75" width="120" height="60" as="geometry" />
        </mxCell>
        <mxCell id="N-JNO2pC3MTRMVF4ANTs-1713" value="Contabilidad de&amp;nbsp;" style="rounded=1;whiteSpace=wrap;html=1;strokeColor=#FF0000;fontSize=17;fontColor=#FF0000;" vertex="1" parent="1">
          <mxGeometry x="790" y="666.5" width="120" height="60" as="geometry" />
        </mxCell>
        <mxCell id="N-JNO2pC3MTRMVF4ANTs-1714" value="&lt;font color=&quot;#000000&quot;&gt;Realizan extracciones de minerales&lt;/font&gt;" style="rounded=1;whiteSpace=wrap;html=1;fontSize=17;fontColor=#FF0000;" vertex="1" parent="1">
          <mxGeometry x="640" y="666.5" width="120" height="60" as="geometry" />
        </mxCell>
        <mxCell id="N-JNO2pC3MTRMVF4ANTs-1715" value="" style="rounded=1;whiteSpace=wrap;html=1;strokeColor=#FF0000;fontSize=17;fontColor=#FF0000;" vertex="1" parent="1">
          <mxGeometry x="730" y="570" width="120" height="60" as="geometry" />
        </mxCell>
        <mxCell id="N-JNO2pC3MTRMVF4ANTs-1716" value="&lt;font color=&quot;#000000&quot;&gt;Transformar materias primas en productos final&lt;/font&gt;" style="rounded=1;whiteSpace=wrap;html=1;fontSize=17;fontColor=#FF0000;" vertex="1" parent="1">
          <mxGeometry x="558.5" y="550" width="121.5" height="90" as="geometry" />
        </mxCell>
        <mxCell id="N-JNO2pC3MTRMVF4ANTs-1724" value="" style="endArrow=classic;html=1;labelBackgroundColor=#009900;fontSize=17;fontColor=#FF0000;entryX=0;entryY=0.5;entryDx=0;entryDy=0;" edge="1" parent="1" target="1517">
          <mxGeometry width="50" height="50" relative="1" as="geometry">
            <mxPoint x="175" y="610" as="sourcePoint" />
            <mxPoint x="225" y="560" as="targetPoint" />
          </mxGeometry>
        </mxCell>
        <mxCell id="N-JNO2pC3MTRMVF4ANTs-1725" value="" style="shape=flexArrow;endArrow=classic;html=1;labelBackgroundColor=#009900;fontSize=17;fontColor=#FF0000;entryX=0.017;entryY=0.65;entryDx=0;entryDy=0;entryPerimeter=0;strokeColor=#2D7600;fillColor=#60a917;" edge="1" parent="1" target="N-JNO2pC3MTRMVF4ANTs-1704">
          <mxGeometry width="50" height="50" relative="1" as="geometry">
            <mxPoint x="-10" y="610" as="sourcePoint" />
            <mxPoint x="40" y="560" as="targetPoint" />
          </mxGeometry>
        </mxCell>
        <mxCell id="N-JNO2pC3MTRMVF4ANTs-1726" value="" style="shape=flexArrow;endArrow=classic;html=1;labelBackgroundColor=#009900;fontSize=17;fontColor=#FF0000;entryX=0.083;entryY=0.333;entryDx=0;entryDy=0;entryPerimeter=0;strokeColor=#2D7600;fillColor=#60a917;" edge="1" parent="1" target="N-JNO2pC3MTRMVF4ANTs-1706">
          <mxGeometry width="50" height="50" relative="1" as="geometry">
            <mxPoint x="-130" y="666.5" as="sourcePoint" />
            <mxPoint x="-80" y="616.5" as="targetPoint" />
          </mxGeometry>
        </mxCell>
        <mxCell id="N-JNO2pC3MTRMVF4ANTs-1727" value="" style="shape=flexArrow;endArrow=classic;html=1;labelBackgroundColor=#009900;fontSize=17;fontColor=#FF0000;entryX=0;entryY=0.5;entryDx=0;entryDy=0;strokeColor=#2D7600;fillColor=#60a917;" edge="1" parent="1" target="N-JNO2pC3MTRMVF4ANTs-1708">
          <mxGeometry width="50" height="50" relative="1" as="geometry">
            <mxPoint x="-120" y="800" as="sourcePoint" />
            <mxPoint x="-70" y="750" as="targetPoint" />
          </mxGeometry>
        </mxCell>
        <mxCell id="N-JNO2pC3MTRMVF4ANTs-1728" value="" style="shape=flexArrow;endArrow=classic;html=1;labelBackgroundColor=#009900;fontSize=17;fontColor=#FF0000;entryX=0;entryY=0.5;entryDx=0;entryDy=0;strokeColor=#2D7600;fillColor=#60a917;" edge="1" parent="1" target="N-JNO2pC3MTRMVF4ANTs-1710">
          <mxGeometry width="50" height="50" relative="1" as="geometry">
            <mxPoint y="910" as="sourcePoint" />
            <mxPoint x="50" y="860" as="targetPoint" />
          </mxGeometry>
        </mxCell>
        <mxCell id="N-JNO2pC3MTRMVF4ANTs-1729" value="" style="shape=flexArrow;endArrow=classic;html=1;labelBackgroundColor=#009900;fontSize=17;fontColor=#FF0000;entryX=-0.033;entryY=0.633;entryDx=0;entryDy=0;entryPerimeter=0;strokeColor=#2D7600;fillColor=#60a917;" edge="1" parent="1" target="N-JNO2pC3MTRMVF4ANTs-1715">
          <mxGeometry width="50" height="50" relative="1" as="geometry">
            <mxPoint x="678.5" y="610" as="sourcePoint" />
            <mxPoint x="728.5" y="560" as="targetPoint" />
          </mxGeometry>
        </mxCell>
        <mxCell id="N-JNO2pC3MTRMVF4ANTs-1730" value="" style="shape=flexArrow;endArrow=classic;html=1;labelBackgroundColor=#009900;fontSize=17;fontColor=#FF0000;entryX=0;entryY=0.5;entryDx=0;entryDy=0;strokeColor=#2D7600;fillColor=#60a917;" edge="1" parent="1" target="N-JNO2pC3MTRMVF4ANTs-1713">
          <mxGeometry width="50" height="50" relative="1" as="geometry">
            <mxPoint x="760" y="700" as="sourcePoint" />
            <mxPoint x="810" y="650" as="targetPoint" />
          </mxGeometry>
        </mxCell>
        <mxCell id="N-JNO2pC3MTRMVF4ANTs-1731" value="" style="shape=flexArrow;endArrow=classic;html=1;labelBackgroundColor=#009900;fontSize=17;fontColor=#FF0000;entryX=0;entryY=0.5;entryDx=0;entryDy=0;strokeColor=#2D7600;fillColor=#60a917;" edge="1" parent="1" target="N-JNO2pC3MTRMVF4ANTs-1711">
          <mxGeometry width="50" height="50" relative="1" as="geometry">
            <mxPoint x="713.5" y="891.5" as="sourcePoint" />
            <mxPoint x="763.5" y="841.5" as="targetPoint" />
          </mxGeometry>
        </mxCell>
      </root>
    </mxGraphModel>
  </diagram>
</mxfile>
